<svg width="693" height="693" viewBox="0 0 693 693" fill="none" xmlns="http://www.w3.org/2000/svg">
<path d="M203.02 54.869H80.3381V257.941H203.02V54.869Z" fill="#E0E0E0"/>
<path d="M198.94 54.869H76.2577V257.941H198.94V54.869Z" fill="#EBEBEB"/>
<path d="M193.716 58.9868H81.4816V253.824H193.716V58.9868Z" fill="#FAFAFA"/>
<path d="M171.862 84.3034H102.848V228.506H171.862V84.3034Z" fill="#EBEBEB"/>
<path d="M102.848 177.477C102.689 164.007 114.8 150.856 128.14 148.976C134.5 148.079 141.258 149.341 147.203 146.904C157.811 142.553 161.188 128.459 171.864 124.278L172.35 228.506H102.848V177.477Z" fill="#E0E0E0"/>
<path d="M654.755 62.4767H537.097V185.124H654.755V62.4767Z" fill="#E0E0E0"/>
<path d="M646.786 62.4766H529.13V185.124H646.786V62.4766Z" fill="#FAFAFA"/>
<path d="M646.823 185.161H529.093V62.4407H646.823V185.161ZM529.167 185.088H646.751V62.5141H529.167V185.088Z" fill="#E0E0E0"/>
<path d="M630.97 78.9646H544.946V168.637H630.97V78.9646Z" fill="#FAFAFA"/>
<path d="M544.946 169.233C545.014 169.314 544.196 170.252 542.823 171.702C541.449 173.152 539.519 175.114 537.355 177.246C535.19 179.379 533.201 181.278 531.735 182.625C530.267 183.972 529.323 184.77 529.248 184.696C529.175 184.621 529.986 183.688 531.359 182.238C532.733 180.788 534.669 178.822 536.839 176.684C539.01 174.547 541.003 172.643 542.469 171.296C543.938 169.946 544.878 169.153 544.946 169.233Z" fill="#E0E0E0"/>
<path d="M630.97 169.013C631.05 168.945 631.988 169.761 633.438 171.135C634.888 172.508 636.85 174.439 638.982 176.603C641.114 178.768 643.014 180.757 644.361 182.223C645.71 183.691 646.507 184.635 646.432 184.709C646.357 184.783 645.424 183.972 643.974 182.599C642.525 181.225 640.558 179.289 638.419 177.118C636.282 174.948 634.379 172.955 633.031 171.488C631.683 170.022 630.891 169.081 630.97 169.013Z" fill="#E0E0E0"/>
<path d="M630.735 79.2043C630.667 79.124 631.484 78.1856 632.859 76.7359C634.232 75.2861 636.163 73.3235 638.326 71.1919C640.49 69.0588 642.479 67.16 643.947 65.8114C645.413 64.4642 646.358 63.6659 646.433 63.7407C646.507 63.8156 645.696 64.7484 644.322 66.1981C642.949 67.6479 641.013 69.6146 638.842 71.7532C636.672 73.8904 634.679 75.7934 633.212 77.142C631.743 78.4919 630.803 79.2847 630.735 79.2043Z" fill="#E0E0E0"/>
<path d="M544.71 79.4247C544.63 79.4926 543.692 78.6763 542.242 77.3014C540.792 75.9279 538.83 73.9972 536.698 71.8336C534.565 69.6687 532.666 67.6812 531.319 66.2134C529.97 64.747 529.173 63.8017 529.248 63.7269C529.323 63.6521 530.256 64.4642 531.706 65.8378C533.155 67.2113 535.122 69.1475 537.261 71.318C539.399 73.4885 541.302 75.4816 542.649 76.9493C543.998 78.4157 544.791 79.3554 544.71 79.4247Z" fill="#E0E0E0"/>
<path d="M630.735 168.637C630.73 168.632 630.723 168.485 630.717 168.202C630.713 167.896 630.706 167.484 630.698 166.951C630.688 165.827 630.676 164.209 630.659 162.109C630.64 157.861 630.609 151.681 630.572 143.834C630.532 128.127 630.473 105.755 630.403 78.9646L630.734 79.2958C605.692 79.3097 576.282 79.3263 544.954 79.3457H544.946L545.327 78.9646C545.308 111.878 545.288 142.669 545.273 168.637L544.946 168.31C570.654 168.38 592.056 168.436 607.062 168.477C614.559 168.513 620.458 168.542 624.511 168.563C626.512 168.579 628.053 168.592 629.128 168.6C629.635 168.608 630.029 168.614 630.321 168.618C630.588 168.625 630.728 168.632 630.735 168.637C630.742 168.644 630.613 168.65 630.357 168.657C630.073 168.661 629.692 168.666 629.2 168.675C628.141 168.683 626.62 168.696 624.645 168.712C620.609 168.732 614.737 168.761 607.272 168.798C592.216 168.838 570.74 168.897 544.947 168.966L544.62 168.967V168.639C544.605 142.671 544.586 111.879 544.566 78.966V78.5848H544.947H544.956C576.284 78.6028 605.693 78.6195 630.735 78.6333H631.068V78.9646C630.997 105.842 630.94 128.29 630.899 144.046C630.861 151.861 630.832 158.016 630.812 162.247C630.795 164.319 630.782 165.914 630.773 167.023C630.764 167.541 630.759 167.942 630.755 168.238C630.748 168.51 630.741 168.644 630.735 168.637Z" fill="#E0E0E0"/>
<path d="M602.311 109.448H573.606V138.154H602.311V109.448Z" fill="#EBEBEB"/>
<path d="M477.068 637.218C474.623 635.121 469.167 628.476 473.374 620.746C474.917 617.913 478.192 616.512 481.157 615.263C484.121 614.015 487.237 612.929 489.69 610.843C494.317 606.907 495.593 600.368 498.665 595.117C502.191 589.089 508.772 584.572 515.724 584.888C523.686 585.25 530.327 591.753 533.336 599.168C536.346 606.581 536.451 614.814 536.514 622.823C536.548 627.25 536.352 632.242 533.101 635.232C530.105 637.988 525.592 638.022 521.531 637.898C507.028 637.452 492.523 637.007 478.02 636.562" fill="#F5F5F5"/>
<path d="M560.289 517.568H445.861L466.474 640.476C467.374 645.844 471.258 649.981 476.243 651.419C476.375 651.46 476.511 651.491 476.644 651.528C476.985 651.615 477.313 651.73 477.663 651.791C478.417 651.948 479.197 652.027 479.99 652.059C479.995 652.098 480.002 652.138 480.008 652.177L480.566 652.088H480.571H531.568C532.528 652.088 533.464 651.99 534.371 651.808C540.393 650.877 545.215 646.042 545.947 639.796L555.883 555.111L556.331 551.744H556.278L560.213 518.206L560.289 517.568ZM538.702 595.969H526.96L528.145 560.299H541.75L538.702 595.969ZM542.889 560.299H554.131L549.945 595.969H539.841L542.889 560.299ZM509.341 635.511L508.627 604.523H525.538L524.508 635.511H509.341ZM491.058 604.523H507.489L508.203 635.511H493.466L491.058 604.523ZM492.328 635.511H478.551C477.241 627.146 475.538 616.271 473.695 604.523H489.919L492.328 635.511ZM490.393 595.969L487.621 560.299H506.471L507.293 595.969H490.393ZM508.429 595.969L507.607 560.299H527.006L525.821 595.969H508.429ZM507.412 551.744L506.651 518.71H528.389L527.291 551.744H507.412ZM506.275 551.744H486.957L484.39 518.71H505.514L506.275 551.744ZM485.818 551.744H465.379C464.655 547.182 463.969 542.863 463.35 538.978C461.216 525.622 460.415 520.6 459.97 518.71H483.25L485.818 551.744ZM486.483 560.299L489.255 595.969H472.352C471.783 592.35 471.207 588.688 470.632 585.025C469.307 576.605 467.98 568.187 466.733 560.299H486.483ZM471.203 595.969H460.16L454.177 560.299H465.582C467.326 571.322 469.258 583.591 471.203 595.969ZM472.547 604.523C474.23 615.247 475.886 625.819 477.404 635.511H466.794L461.596 604.523H472.547ZM525.645 635.511L526.674 604.523H537.97L535.323 635.511H525.645ZM528.428 551.744L529.525 518.71H545.302L542.48 551.744H528.428ZM458.889 518.71C459.343 521.099 461.431 534.096 464.23 551.744H452.744L447.204 518.71H458.889ZM545.306 635.511H536.462L539.11 604.523H548.942L545.306 635.511ZM555.135 551.744H543.62L546.442 518.71H559.01L555.135 551.744Z" fill="#E0E0E0"/>
<path d="M625.413 653.378C625.413 653.578 492.454 653.739 328.478 653.739C164.445 653.739 31.5149 653.577 31.5149 653.378C31.5149 653.18 164.446 653.018 328.478 653.018C492.454 653.018 625.413 653.179 625.413 653.378Z" fill="#263238"/>
<path d="M466.404 503.233L309.089 503.14C290.169 503.13 274.837 487.786 274.841 468.866L274.919 74.4739C274.923 55.5426 290.276 40.2009 309.207 40.212L466.522 40.3049C485.442 40.316 500.773 55.659 500.77 74.5793L500.692 468.973C500.688 487.903 485.336 503.244 466.404 503.233Z" fill="#455A64"/>
<path d="M466.356 54.2536L435.855 54.2356C431.765 54.2342 428.449 57.6992 428.449 61.9736L428.446 67.5065C428.446 71.7823 425.129 75.2473 421.039 75.2446L361.587 75.2099C357.497 75.2085 354.181 71.7394 354.181 67.4636L354.183 61.9306C354.183 57.6548 350.867 54.1857 346.777 54.1843L336.051 54.1774L309.355 54.1621C296.097 54.1552 285.344 64.8981 285.341 78.1579L285.267 463.114C285.264 476.367 296.001 487.111 309.251 487.119L466.252 487.211C479.509 487.219 490.261 476.475 490.266 463.216L490.34 78.2591C490.343 65.0062 479.606 54.2619 466.356 54.2536Z" fill="#FAFAFA"/>
<path d="M439.079 66.7387H437.337V69.1836H439.079V66.7387Z" fill="#263238"/>
<path d="M441.916 65.6493H440.174V69.1822H441.916V65.6493Z" fill="#263238"/>
<path d="M444.754 64.8329H443.011V69.1836H444.754V64.8329Z" fill="#263238"/>
<path d="M447.592 63.2543H445.85V69.1836H447.592V63.2543Z" fill="#263238"/>
<path d="M473.331 69.3055H464.58C464.235 69.3055 463.952 69.0242 463.952 68.6777V64.3284C463.952 63.9819 464.231 63.7006 464.573 63.7006H473.33C473.373 63.7006 473.415 63.7172 473.444 63.7477C473.474 63.7782 473.489 63.8184 473.489 63.8613V65.2945H474.426C474.515 65.2945 474.587 65.3665 474.587 65.4552V67.5509C474.587 67.6396 474.515 67.7116 474.426 67.7116H473.489V69.1462C473.491 69.2335 473.42 69.3055 473.331 69.3055ZM473.171 64.0207L464.573 64.0221C464.404 64.0221 464.273 64.1566 464.273 64.3284V68.6777C464.273 68.8468 464.41 68.984 464.579 68.984H473.169V67.5495C473.169 67.4608 473.24 67.3887 473.33 67.3887H474.267V65.6132H473.33C473.241 65.6132 473.169 65.5412 473.169 65.4525V64.0207H473.171Z" fill="#263238"/>
<path d="M464.988 68.2702V64.7359H472.457V66.3298V66.6777V68.2702H464.988Z" fill="#263238"/>
<path d="M455.937 68.9715C455.937 68.6181 455.65 68.3326 455.298 68.3326C454.945 68.3326 454.658 68.6195 454.658 68.9715C454.658 69.325 454.945 69.6105 455.298 69.6105C455.65 69.6105 455.937 69.325 455.937 68.9715Z" fill="#263238"/>
<path d="M453.117 67.4289L453.933 68.2452C454.282 67.896 454.766 67.6784 455.298 67.6784C455.83 67.6784 456.313 67.8946 456.663 68.2452L457.48 67.4289C456.921 66.8703 456.149 66.5238 455.298 66.5238C454.446 66.5252 453.675 66.8703 453.117 67.4289Z" fill="#263238"/>
<path d="M455.297 64.7054C453.944 64.7054 452.717 65.2557 451.83 66.1441L452.647 66.9604C453.326 66.2813 454.264 65.8613 455.298 65.8613C456.332 65.8613 457.269 66.2813 457.948 66.9604L458.765 66.1441C457.876 65.2557 456.65 64.7054 455.297 64.7054Z" fill="#263238"/>
<path d="M450.503 64.8149L451.319 65.6313C452.338 64.6125 453.746 63.9805 455.298 63.9805C456.851 63.9805 458.257 64.6112 459.277 65.6313L460.094 64.8149C458.864 63.5869 457.169 62.826 455.298 62.826C453.427 62.826 451.731 63.5869 450.503 64.8149Z" fill="#263238"/>
<path d="M398.306 111.949H387.736C387.013 111.949 386.425 111.361 386.425 110.637V103.454C386.425 102.73 387.011 102.143 387.736 102.143H398.306C399.029 102.143 399.617 102.73 399.617 103.454V110.637C399.617 111.362 399.029 111.949 398.306 111.949Z" fill="#263238"/>
<path d="M389.336 102.787H387.95V101.15C387.95 98.2286 390.13 96.0248 393.021 96.0248C395.912 96.0248 398.091 98.2286 398.091 101.15V102.197H396.705V101.15C396.705 98.984 395.156 97.4108 393.021 97.4108C390.885 97.4108 389.336 98.984 389.336 101.15V102.787Z" fill="#263238"/>
<path d="M286.916 344.959C286.89 320.135 301.364 295.822 323.199 284.014C338.5 275.739 356.214 273.541 373.168 269.649C390.122 265.757 407.688 259.328 418.173 245.448C432.339 226.697 429.634 200.044 439.855 178.883C449.096 159.752 469.444 146.506 490.677 145.799V468.045C490.677 478.869 481.904 487.642 471.081 487.642H306.513C295.689 487.642 286.916 478.869 286.916 468.045V344.959Z" fill="#EBEBEB"/>
<path d="M321.578 177.12C321.578 165.17 327.849 158.041 336.531 158.041C345.212 158.041 351.537 165.17 351.537 177.12C351.537 189.071 345.212 196.198 336.531 196.198C327.849 196.198 321.578 189.07 321.578 177.12ZM347.57 177.12C347.57 167.099 343.068 161.578 336.531 161.578C329.993 161.578 325.491 167.098 325.491 177.12C325.491 187.14 329.993 192.661 336.531 192.661C343.068 192.661 347.57 187.14 347.57 177.12Z" fill="#263238"/>
<path d="M384.115 176.798C384.115 189.554 377.149 196.198 366.966 196.198C363.588 196.198 360.427 195.609 358.069 194.162L359.623 191.053C361.553 192.339 364.124 192.822 366.912 192.822C375.004 192.822 380.202 187.624 380.202 177.441C380.202 176.585 380.149 175.512 380.043 174.387C378.166 178.513 373.772 180.818 368.575 180.818C361.125 180.818 355.926 176.424 355.926 169.563C355.926 162.542 361.447 158.041 368.734 158.041C378.702 158.041 384.115 164.955 384.115 176.798ZM378.809 169.348C378.809 165.222 375.379 161.31 368.895 161.31C363.483 161.31 359.732 164.471 359.732 169.455C359.732 174.385 363.376 177.547 369.164 177.547C374.898 177.548 378.809 174.011 378.809 169.348Z" fill="#263238"/>
<path d="M389.738 170.367C389.738 168.705 391.025 167.473 392.579 167.473C394.133 167.473 395.473 168.705 395.473 170.367C395.473 172.029 394.133 173.315 392.579 173.315C391.025 173.315 389.738 172.029 389.738 170.367ZM389.738 193.197C389.738 191.535 391.025 190.303 392.579 190.303C394.133 190.303 395.473 191.535 395.473 193.197C395.473 194.858 394.133 196.144 392.579 196.144C391.025 196.144 389.738 194.858 389.738 193.197Z" fill="#263238"/>
<path d="M426.662 192.446V195.876H400.349V193.143L415.944 177.87C420.178 173.689 420.982 171.171 420.982 168.599C420.982 164.258 417.928 161.578 412.192 161.578C407.799 161.578 404.422 162.919 401.957 165.759L399.223 163.4C402.117 159.969 406.779 158.041 412.514 158.041C420.123 158.041 424.948 161.9 424.948 168.17C424.948 171.761 423.821 174.977 418.784 179.907L406.03 192.447L426.662 192.446Z" fill="#263238"/>
<path d="M431.266 177.12C431.266 165.17 437.535 158.041 446.219 158.041C454.9 158.041 461.223 165.17 461.223 177.12C461.223 189.071 454.899 196.198 446.219 196.198C437.535 196.198 431.266 189.07 431.266 177.12ZM457.258 177.12C457.258 167.099 452.756 161.578 446.219 161.578C439.679 161.578 435.178 167.098 435.178 177.12C435.178 187.14 439.679 192.661 446.219 192.661C452.756 192.661 457.258 187.14 457.258 177.12Z" fill="#263238"/>
<path d="M350.294 129.481C353.438 114.858 344.132 100.454 329.508 97.3101C314.884 94.1661 300.481 103.472 297.337 118.096C294.193 132.72 303.499 147.123 318.123 150.267C332.746 153.411 347.15 144.105 350.294 129.481Z" fill="#E0E0E0"/>
<path d="M176.922 339.242C174.969 337.839 172.554 337.271 170.38 336.244C168.206 335.217 166.091 333.423 165.892 331.027C165.597 327.487 169.509 324.812 169.739 321.268C170.062 316.274 163.304 313.542 162.314 308.636C161.493 304.562 164.955 300.718 164.805 296.565C164.657 292.425 161.068 289.315 159.426 285.512C155.609 276.669 162.651 265.265 157.318 257.244C155.885 255.088 153.73 253.535 151.903 251.702C150.076 249.867 148.486 247.476 148.704 244.895L138.691 240.346C135.339 235.224 127.735 235.024 122.015 237.21C116.295 239.394 111.275 243.329 105.33 244.798C102.448 245.51 102.861 241.233 99.95 241.826C96.1233 242.607 91.4164 247.085 90.327 250.798C89.1572 254.781 88.3437 259.185 86.9299 263.088C85.3679 267.401 80.7401 270.414 80.309 274.98C79.8045 280.31 85.3139 284.651 85.3222 290.005C85.3319 295.765 78.9729 300.912 80.9992 306.305C82.1579 309.386 85.713 311.038 86.9507 314.088C88.6597 318.303 85.264 322.921 85.5744 327.459C85.8807 331.939 89.6437 335.309 93.2113 338.036C106.861 348.467 121.938 357.164 138.184 362.747C145.211 365.161 152.614 367.004 160.014 366.332C167.414 365.66 174.859 362.12 178.734 355.779C181.918 350.571 181.878 342.802 176.922 339.242Z" fill="#263238"/>
<path d="M148.308 242.402C146.492 235.168 140.565 229.12 133.372 227.157C126.177 225.194 118 227.395 112.764 232.704C110.629 234.867 108.934 237.516 106.412 239.212C103.563 241.129 103.148 240.567 99.9528 241.824C96.7581 243.081 90.9091 251.98 91.0076 255.412L89.4081 270.457C89.5384 273.982 94.0665 275.965 97.4012 274.816C100.737 273.667 102.949 270.549 104.714 267.494C106.477 264.439 108.13 261.138 111.016 259.109C115.8 255.743 122.285 256.901 128.015 258.073C133.745 259.246 140.374 260.083 144.845 256.313C148.697 253.068 149.534 247.289 148.308 242.402Z" fill="#263238"/>
<path d="M151.457 263.882C150.818 254.087 144.301 242.083 134.542 243.138L104.08 250.909C101.116 251.229 98.8897 253.764 98.9549 256.745L102.38 330.234C102.308 330.251 102.241 330.264 102.169 330.28C102.169 330.28 114.561 356.546 134.704 350.213C138.698 348.957 135.073 339.05 135.864 334.557L136.071 334.583C136.079 334.05 136.086 333.553 136.091 333.043C136.755 327.857 136.212 322.952 136.212 322.952C136.269 317.018 136.262 314.585 136.266 314.64C136.266 314.64 148.776 312.535 151.333 296.201C152.604 288.077 152.166 274.763 151.457 263.882Z" fill="#FFBE9D"/>
<path d="M148.937 276.465C148.978 277.571 148.076 278.518 146.922 278.583C145.77 278.647 144.8 277.806 144.758 276.7C144.716 275.594 145.619 274.646 146.771 274.582C147.926 274.515 148.895 275.359 148.937 276.465Z" fill="#263238"/>
<path d="M148.583 270.815C148.324 271.089 146.736 269.918 144.482 269.929C142.231 269.908 140.581 271.071 140.335 270.795C140.215 270.673 140.478 270.18 141.197 269.655C141.904 269.131 143.113 268.621 144.517 268.623C145.921 268.628 147.103 269.142 147.782 269.67C148.475 270.198 148.711 270.691 148.583 270.815Z" fill="#263238"/>
<path d="M127.637 277.165C127.678 278.271 126.776 279.218 125.623 279.283C124.471 279.347 123.502 278.506 123.461 277.4C123.419 276.294 124.321 275.346 125.473 275.28C126.625 275.217 127.595 276.061 127.637 277.165Z" fill="#263238"/>
<path d="M126.434 271.285C126.175 271.558 124.583 270.388 122.331 270.399C120.08 270.377 118.43 271.54 118.184 271.265C118.064 271.143 118.326 270.65 119.046 270.124C119.755 269.601 120.962 269.09 122.366 269.093C123.77 269.099 124.951 269.613 125.631 270.14C126.324 270.668 126.561 271.161 126.434 271.285Z" fill="#263238"/>
<path d="M134.649 287.978C134.637 287.85 136.037 287.605 138.308 287.309C138.883 287.248 139.427 287.133 139.523 286.74C139.658 286.324 139.416 285.704 139.135 285.035C138.59 283.644 138.022 282.185 137.423 280.657C135.046 274.424 133.325 269.297 133.576 269.204C133.828 269.11 135.96 274.087 138.335 280.32C138.908 281.857 139.455 283.322 139.975 284.725C140.194 285.377 140.571 286.119 140.278 286.982C140.125 287.412 139.703 287.725 139.335 287.826C138.966 287.94 138.642 287.947 138.357 287.964C136.075 288.093 134.658 288.105 134.649 287.978Z" fill="#263238"/>
<path d="M136.265 314.64C136.265 314.64 125.282 315.373 114.384 308.855C114.384 308.855 119.714 320.059 136.053 318.496L136.265 314.64Z" fill="#EB996E"/>
<path d="M133.709 293.411C132.897 292.341 131.475 291.756 130.065 291.911C129.088 292.018 128.1 292.492 127.508 293.29C126.916 294.087 126.794 295.218 127.335 295.976C127.944 296.83 129.215 297.024 130.291 296.716C131.366 296.409 132.29 295.699 133.167 294.991C133.409 294.795 133.658 294.59 133.809 294.323C133.96 294.055 133.992 293.704 133.803 293.484" fill="#EB996E"/>
<path d="M128.021 289.551C128.387 289.528 128.398 291.975 130.495 293.706C132.588 295.443 135.195 295.163 135.214 295.505C135.249 295.659 134.635 295.982 133.534 296.014C132.455 296.052 130.877 295.71 129.594 294.651C128.315 293.589 127.762 292.17 127.676 291.167C127.583 290.144 127.853 289.537 128.021 289.551Z" fill="#263238"/>
<path d="M127.439 267.336C127.218 267.948 124.967 267.663 122.324 267.989C119.674 268.26 117.544 269.039 117.192 268.49C117.035 268.228 117.405 267.65 118.266 267.056C119.12 266.461 120.481 265.896 122.068 265.716C123.655 265.538 125.109 265.788 126.072 266.177C127.045 266.565 127.534 267.045 127.439 267.336Z" fill="#263238"/>
<path d="M147.741 264.295C147.346 264.808 145.792 264.28 143.925 264.259C142.059 264.173 140.478 264.611 140.114 264.076C139.953 263.817 140.201 263.304 140.891 262.817C141.57 262.334 142.708 261.936 143.992 261.972C145.274 262.009 146.387 262.471 147.037 262.995C147.698 263.517 147.915 264.044 147.741 264.295Z" fill="#263238"/>
<path d="M134.004 238.96L132.619 237.189C123.202 238.266 113.931 240.632 105.149 244.199C101.637 245.626 98.0803 247.337 95.6784 250.27C92.3728 254.307 91.8461 259.874 91.4705 265.078C90.0387 284.891 88.8523 305.298 95.0893 324.159C96.589 321.746 99.5245 320.662 102.313 320.124C105.102 319.587 108.029 319.405 110.556 318.109C113.328 316.689 115.355 313.976 116.132 310.96C116.908 307.944 116.473 304.669 115.121 301.864C113.608 298.723 110.905 295.693 111.566 292.27C112.256 288.687 116.374 286.633 117.339 283.114C119.008 277.031 110.467 271.57 112.197 265.504C112.836 263.264 114.791 261.63 116.876 260.592C118.96 259.553 121.246 258.974 123.357 257.993C130.402 254.722 134.902 246.675 134.004 238.96Z" fill="#263238"/>
<path d="M216.432 363.448L197.335 393.169C197.335 393.169 199.461 396.691 204.051 396.499C208.642 396.306 214.966 384.828 215.72 382.504C216.474 380.178 215.448 377.946 216.137 376.402C216.826 374.858 216.547 370.605 216.547 370.605C216.446 370.849 220.673 365.192 216.432 363.448Z" fill="#FFBE9D"/>
<path d="M192.061 393.151L202.012 353.808C202.31 352.629 203.077 351.621 204.134 351.02L218.593 342.777C219.472 342.277 220.586 342.517 221.179 343.336C221.524 343.813 221.639 344.417 221.495 344.987L210.958 386.399L192.061 393.151Z" fill="#263238"/>
<path d="M187.041 423.646L210.148 380.973L201.448 369.699L168.931 394.378L177.448 417.829L187.041 423.646Z" fill="#B85EFF"/>
<path d="M210.427 390.224C210.359 390.192 210.739 389.634 210.87 388.467C211.023 387.316 210.938 385.573 210.386 383.539L210.359 383.438L210.411 383.347C210.773 382.72 210.948 381.925 210.679 381.157C210.434 380.392 209.806 379.668 209.067 379.149L208.813 378.97L208.985 378.712C209.803 377.49 210.679 376.181 211.601 374.805C211.82 374.465 212.115 374.091 212.21 373.796C212.32 373.476 212.281 373.12 212.134 372.769C211.835 372.069 211.186 371.43 210.514 370.938L210.19 370.7L210.45 370.402C211.161 369.591 211.949 368.79 212.744 367.973C214.122 366.508 215.444 365.065 216.554 363.58C217.086 362.828 217.619 362.088 217.968 361.315C218.158 360.935 218.274 360.542 218.314 360.187C218.346 359.824 218.172 359.623 217.962 359.581L217.882 359.564C217.547 359.47 217.018 359.598 216.574 359.767C216.116 359.937 215.674 360.151 215.25 360.368C214.402 360.815 213.617 361.294 212.888 361.761C211.432 362.7 210.194 363.585 209.174 364.32C208.234 365.007 207.451 365.581 206.812 366.05C206.263 366.449 205.962 366.655 205.94 366.628C205.918 366.6 206.174 366.341 206.684 365.89C207.193 365.44 207.953 364.797 208.941 364.012C209.931 363.23 211.145 362.298 212.593 361.314C213.319 360.823 214.104 360.318 214.97 359.842C215.407 359.607 215.861 359.377 216.356 359.183C216.855 359.011 217.382 358.785 218.094 358.953L218.012 358.937C218.679 358.982 219.057 359.72 218.981 360.214C218.937 360.718 218.788 361.178 218.589 361.596C218.209 362.456 217.667 363.217 217.121 363.998C215.991 365.531 214.658 366.993 213.271 368.47C212.474 369.289 211.682 370.091 210.982 370.883L210.919 370.348C211.695 370.93 212.382 371.584 212.784 372.501C212.977 372.955 213.045 373.515 212.87 374.011C212.676 374.526 212.406 374.806 212.177 375.168C211.229 376.543 210.33 377.849 209.488 379.07L209.407 378.634C210.262 379.262 210.92 380.05 211.213 380.989C211.522 381.928 211.268 382.916 210.836 383.6L210.861 383.408C211.372 385.542 211.376 387.322 211.136 388.512C211.024 389.108 210.844 389.548 210.701 389.829C210.54 390.102 210.447 390.237 210.427 390.224Z" fill="#EB996E"/>
<path d="M221.178 343.336C221.203 343.379 220.779 343.675 219.989 344.176C219.199 344.675 218.044 345.379 216.608 346.234C215.116 347.111 213.411 348.112 211.548 349.205C210.585 349.76 209.581 350.338 208.545 350.935C207.504 351.523 206.389 352.09 205.524 352.913C204.657 353.721 204.303 354.891 204.004 356.037C203.703 357.194 203.411 358.314 203.132 359.388C202.574 361.474 202.062 363.383 201.615 365.054C201.172 366.665 200.802 367.965 200.531 368.859C200.259 369.753 200.086 370.242 200.039 370.23C199.99 370.217 200.071 369.706 200.259 368.79C200.446 367.874 200.741 366.555 201.12 364.928C201.523 363.246 201.983 361.325 202.488 359.223C202.755 358.145 203.032 357.021 203.319 355.86C203.61 354.711 203.991 353.361 205.02 352.396C206.012 351.458 207.159 350.899 208.204 350.314C209.247 349.731 210.255 349.165 211.224 348.623C213.113 347.58 214.841 346.625 216.355 345.789C217.821 344.991 219.014 344.356 219.846 343.932C220.68 343.508 221.153 343.293 221.178 343.336Z" fill="#455A64"/>
<path d="M211.598 356.79C211.239 357.646 211.197 358.445 211.505 358.573C211.813 358.702 212.353 358.113 212.712 357.257C213.071 356.4 213.113 355.602 212.805 355.473C212.497 355.344 211.957 355.933 211.598 356.79Z" fill="white"/>
<path d="M139.638 332.93C149.67 336.551 157.853 344.007 162.391 353.659L193.415 419.649L220.136 430.486L196.608 437.266L175.652 421.901L139.638 332.93Z" fill="#B85EFF"/>
<path d="M196.608 437.265L185.351 445.943L129.195 388.178L97.0893 330.191L100.801 319.405L125.622 329.743L134.51 342.878L136.492 326.208L138.086 328.465L140.676 335.49C140.676 335.49 165.049 355.767 170.308 371.843C174.697 385.262 173.323 412.986 175.996 420.521L196.608 437.265Z" fill="#FAFAFA"/>
<path d="M91.0782 329.438C90.7026 330.567 67.0713 340.059 65.9431 348.334C64.8149 356.608 82.9244 420.583 82.9244 420.583L111.631 445.943H185.35L161.964 402.16C156.923 392.723 150.556 384.056 143.041 376.442C136.12 369.43 127.745 360.755 123.434 355.576C118.762 349.962 98.9535 323.76 98.9535 323.76L91.0782 329.438Z" fill="#B85EFF"/>
<path d="M105.868 332.056C105.914 331.968 107.506 332.691 110.046 333.93C112.583 335.171 116.068 336.928 119.895 338.909C121.415 339.703 122.879 340.467 124.237 341.176L123.738 341.505C123.545 338.357 123.846 335.652 124.205 333.779C124.565 331.901 124.947 330.84 125.014 330.858C125.102 330.878 124.865 331.975 124.626 333.846C124.388 335.716 124.186 338.378 124.421 341.458L124.468 342.066L123.922 341.786C122.558 341.088 121.091 340.334 119.563 339.551C115.737 337.57 112.29 335.74 109.811 334.385C107.332 333.028 105.823 332.145 105.868 332.056Z" fill="#263238"/>
<path d="M162.693 390.407C162.649 390.431 162.231 389.763 161.513 388.533C160.74 387.19 159.727 385.431 158.506 383.312C155.976 378.898 152.466 372.812 148.493 366.147C144.517 359.48 140.831 353.497 138.151 349.174C136.866 347.092 135.802 345.365 134.988 344.045C134.248 342.83 133.859 342.144 133.9 342.117C133.942 342.091 134.41 342.723 135.224 343.893C136.037 345.061 137.186 346.772 138.582 348.901C141.375 353.157 145.132 359.104 149.114 365.778C153.091 372.451 156.536 378.585 158.952 383.065C160.161 385.305 161.12 387.129 161.76 388.402C162.402 389.67 162.737 390.384 162.693 390.407Z" fill="#263238"/>
<g opacity="0.3">
<path d="M151.336 435.003C155.619 435.729 160.011 436.456 164.278 435.643C168.546 434.83 172.73 432.141 174.068 428.008C174.486 426.715 174.668 425.237 175.667 424.316C177.315 422.792 179.942 423.728 182.177 423.524C184.672 423.297 186.812 421.51 188.112 419.369C189.412 417.226 190.011 414.745 190.593 412.307C190.88 411.103 191.17 409.871 191.032 408.64C190.895 407.411 190.244 406.163 189.116 405.654C187.427 404.894 185.523 406.001 184.021 407.083C171.868 415.839 160.79 425.98 149.745 436.097" fill="black"/>
</g>
<path d="M178.872 386.167C178.872 386.167 183.099 376.465 185.353 375.119C187.606 373.774 198.815 367.24 198.815 367.24L197.371 372.573L208.326 364.966C209.673 364.061 217.497 356.95 218.884 359.725C219.883 361.722 213.495 366.986 212.639 368.158C210.499 371.086 211.21 370.816 211.21 370.816C211.21 370.816 213.53 372.212 212.364 374.281C211.199 376.35 209.236 378.887 209.236 378.887C209.236 378.887 212.285 379.973 210.506 383.936C210.506 383.936 211.316 386.068 210.815 389.024C210.312 391.98 204.969 397.6 204.969 397.6L178.305 410.3L167.552 392.05L178.872 386.167Z" fill="#FFBE9D"/>
<path d="M116.775 367.93L133.872 404.436L171.793 387.962C171.793 387.962 187.531 397.144 185.351 407.178L151.186 435.243C144.718 440.557 136.355 442.988 128.046 441.97C119.123 440.878 111.131 435.916 106.194 428.403L81.4635 390.767L67.6368 368.166C63.2113 360.934 63.2099 351.617 68.2162 344.774C69.5828 342.906 71.2099 341.344 73.1018 340.191C79.2723 336.433 97.6188 334.805 116.775 367.93Z" fill="#B85EFF"/>
<path d="M200.88 370.038C200.978 370.198 198.485 371.914 195.311 373.872C192.137 375.832 189.486 377.291 189.387 377.132C189.289 376.974 191.782 375.257 194.956 373.297C198.13 371.34 200.782 369.879 200.88 370.038Z" fill="#EB996E"/>
<path d="M211.563 369.704C211.691 369.84 209.462 372.246 206.585 375.078C203.707 377.911 201.267 380.101 201.132 379.97C200.999 379.84 203.226 377.436 206.111 374.597C208.995 371.76 211.436 369.569 211.563 369.704Z" fill="#EB996E"/>
<path d="M210.136 377.929C210.277 378.05 209.232 379.51 207.8 381.192C206.368 382.873 205.093 384.137 204.951 384.016C204.808 383.896 205.854 382.435 207.286 380.754C208.718 379.072 209.994 377.808 210.136 377.929Z" fill="#EB996E"/>
<path d="M210.623 383.473C210.766 383.598 210.177 384.497 209.427 385.574C208.675 386.648 208.032 387.51 207.865 387.419C207.705 387.332 208.097 386.295 208.874 385.187C209.648 384.076 210.486 383.351 210.623 383.473Z" fill="#EB996E"/>
<path d="M145.358 438.863C145.353 438.856 145.411 438.799 145.531 438.695C145.677 438.573 145.853 438.425 146.075 438.241C146.593 437.822 147.308 437.246 148.223 436.507C150.152 434.979 152.92 432.787 156.421 430.013C163.536 424.436 173.62 416.528 185.656 407.092L185.534 407.329C185.538 405.469 185.208 403.564 184.46 401.74C183.674 399.937 182.599 398.216 181.312 396.6C178.682 393.422 175.346 390.587 171.615 388.267L171.932 388.286C165.653 391.018 159.063 393.883 152.298 396.826C146.029 399.546 139.91 402.202 134.012 404.762L133.707 404.895L133.556 404.598C128.522 394.698 123.883 385.379 119.166 377.286C116.83 373.228 114.507 369.462 112.323 365.966C110.134 362.471 108.139 359.215 106.101 356.415C102.116 350.726 97.6396 347.25 94.2882 345.462C93.4677 344.977 92.7082 344.607 92.0498 344.289C91.3998 343.954 90.8329 343.707 90.3728 343.515C89.9417 343.325 89.5994 343.174 89.336 343.056C89.1032 342.949 88.9868 342.889 88.9909 342.88C88.9909 342.88 91.0131 343.456 94.4102 345.246C96.1011 346.144 98.115 347.4 100.198 349.201C102.301 350.98 104.409 353.34 106.473 356.147C108.549 358.949 110.575 362.198 112.784 365.678C114.992 369.162 117.34 372.923 119.699 376.98C124.464 385.07 129.139 394.393 134.186 404.28L133.73 404.116C139.626 401.552 145.742 398.892 152.01 396.166C158.777 393.229 165.369 390.368 171.651 387.642L171.821 387.569L171.969 387.661C175.792 390.048 179.143 392.912 181.836 396.177C183.149 397.836 184.255 399.614 185.066 401.491C185.839 403.391 186.184 405.395 186.168 407.356L186.166 407.501L186.046 407.594C173.944 416.945 163.803 424.783 156.651 430.31C153.105 433.024 150.299 435.169 148.345 436.663C147.404 437.369 146.669 437.922 146.137 438.321C145.903 438.49 145.716 438.626 145.563 438.737C145.433 438.827 145.364 438.87 145.358 438.863Z" fill="#263238"/>
<path d="M131.569 415.915C131.371 415.83 132.418 413.223 133.016 409.847C133.638 406.475 133.57 403.667 133.785 403.657C133.967 403.632 134.364 406.499 133.725 409.976C133.107 413.456 131.73 416.002 131.569 415.915Z" fill="#263238"/>
<path d="M340.212 523.151L360.07 548.03C360.07 548.03 392.027 536.199 396.147 540.44L349.291 580.679L316.758 543.184L340.212 523.151Z" fill="#B85EFF"/>
<g opacity="0.6">
<path d="M343.839 558.443C343.145 559.47 343.394 561.026 344.391 561.762C345.387 562.498 346.974 562.259 347.686 561.244C348.397 560.23 348.156 558.35 347.084 557.732C346.011 557.112 344.163 557.496 343.716 558.651" fill="white"/>
</g>
<g opacity="0.6">
<path d="M349.291 580.679L346.16 576.771L392.256 539.653C392.256 539.653 395.121 538.769 396.148 540.442L349.291 580.679Z" fill="white"/>
</g>
<path d="M360.625 547.14C360.815 547.376 359.758 548.461 359.265 550.164C358.726 551.854 358.998 553.344 358.709 553.434C358.46 553.571 357.627 551.909 358.262 549.859C358.877 547.803 360.494 546.888 360.625 547.14Z" fill="#263238"/>
<path d="M367.286 544.952C367.528 545.129 366.871 546.368 366.926 548.004C366.931 549.64 367.634 550.855 367.398 551.04C367.214 551.261 365.904 550.058 365.876 548.023C365.829 545.99 367.093 544.738 367.286 544.952Z" fill="#263238"/>
<path d="M375.128 548.437C374.962 548.665 373.661 547.794 373.174 546.038C372.672 544.284 373.326 542.863 373.587 542.971C373.878 543.049 373.76 544.317 374.183 545.754C374.573 547.198 375.336 548.22 375.128 548.437Z" fill="#263238"/>
<path d="M355.47 541.972C355.553 542.263 354.232 542.849 353.014 544.047C351.772 545.221 351.139 546.519 350.851 546.425C350.576 546.374 350.831 544.683 352.287 543.291C353.729 541.89 355.429 541.696 355.47 541.972Z" fill="#263238"/>
<g opacity="0.3">
<path d="M344.138 528.084L347.684 532.512L324.475 552.08L321.118 548.23L344.138 528.084Z" fill="black"/>
</g>
<path d="M351.372 537.026C351.456 537.119 350.673 538.037 349.014 539.031C348.188 539.524 347.139 540.016 345.912 540.385C345.298 540.568 344.641 540.722 343.951 540.827C343.616 540.874 343.24 540.953 342.769 540.884C342.31 540.863 341.645 540.379 341.619 539.757C341.549 539.191 341.84 538.672 342.172 538.374C342.507 538.066 342.847 537.896 343.156 537.739C343.786 537.417 344.424 537.171 345.045 536.986C346.289 536.625 347.459 536.515 348.428 536.548C350.379 536.622 351.484 537.158 351.444 537.269C351.405 537.434 350.26 537.172 348.44 537.291C347.534 537.351 346.463 537.53 345.334 537.909C344.772 538.102 344.198 538.346 343.631 538.651C343.023 538.947 342.597 539.306 342.659 539.636C342.686 539.761 342.708 539.798 342.937 539.855C343.158 539.897 343.473 539.855 343.804 539.811C344.45 539.725 345.07 539.602 345.653 539.455C346.819 539.158 347.837 538.765 348.668 538.376C350.332 537.596 351.269 536.899 351.372 537.026Z" fill="#263238"/>
<path d="M351.355 537.611C351.304 537.717 350.147 537.286 348.79 535.876C348.119 535.175 347.431 534.218 346.903 533.032C346.643 532.437 346.425 531.787 346.278 531.094C346.155 530.396 345.958 529.488 346.758 528.625C347.207 528.209 347.903 528.241 348.3 528.437C348.727 528.622 348.992 528.867 349.28 529.09C349.836 529.563 350.287 530.109 350.639 530.669C351.348 531.793 351.652 532.974 351.718 533.954C351.844 535.955 351.125 537.047 351.039 536.986C350.865 536.936 351.283 535.811 350.981 534.042C350.833 533.171 350.488 532.148 349.829 531.2C349.503 530.726 349.1 530.273 348.622 529.882C348.122 529.446 347.589 529.205 347.447 529.416C347.211 529.613 347.136 530.328 347.286 530.889C347.406 531.516 347.584 532.11 347.797 532.661C348.231 533.76 348.799 534.68 349.354 535.392C350.47 536.823 351.449 537.469 351.355 537.611Z" fill="#263238"/>
<path d="M318.628 599.843L317.394 632.39C317.394 632.39 350.063 644.576 350.421 650.613L287.226 650.489L287.067 599.696L318.628 599.843Z" fill="#B85EFF"/>
<g opacity="0.6">
<path d="M297.858 629.614C296.634 629.947 295.788 631.319 296.068 632.555C296.349 633.791 297.738 634.666 298.967 634.356C300.197 634.045 301.265 632.428 300.847 631.23C300.428 630.033 298.741 629.096 297.623 629.692" fill="white"/>
</g>
<g opacity="0.6">
<path d="M287.225 650.489L287.409 645.369L347.932 647.403C347.932 647.403 350.743 648.633 350.421 650.615L287.225 650.489Z" fill="white"/>
</g>
<path d="M318.418 632.071C318.407 632.381 316.865 632.518 315.344 633.506C313.797 634.455 313.013 635.79 312.729 635.668C312.445 635.609 312.909 633.764 314.77 632.598C316.621 631.417 318.486 631.789 318.418 632.071Z" fill="#263238"/>
<path d="M325.042 634.825C325.113 635.125 323.774 635.647 322.723 636.95C321.634 638.222 321.366 639.633 321.06 639.62C320.77 639.668 320.56 637.859 321.897 636.264C323.219 634.658 325.035 634.532 325.042 634.825Z" fill="#263238"/>
<path d="M328.79 642.767C328.51 642.832 328.083 641.29 328.878 639.602C329.661 637.906 331.118 637.243 331.248 637.5C331.422 637.754 330.483 638.659 329.851 640.056C329.187 641.435 329.096 642.737 328.79 642.767Z" fill="#263238"/>
<path d="M317.876 624.623C317.746 624.904 316.331 624.475 314.587 624.59C312.841 624.669 311.483 625.252 311.322 624.988C311.143 624.764 312.471 623.625 314.528 623.518C316.583 623.395 318.029 624.381 317.876 624.623Z" fill="#263238"/>
<g opacity="0.3">
<path d="M318.375 606.289L318.163 612.089L287.104 611.746L287.075 606.518L318.375 606.289Z" fill="black"/>
</g>
<path d="M318.004 618.051C318.007 618.178 316.787 618.367 314.838 618.028C313.868 617.859 312.727 617.539 311.528 617.006C310.931 616.738 310.318 616.417 309.713 616.037C309.422 615.848 309.077 615.66 308.759 615.291C308.418 614.968 308.226 614.15 308.621 613.649C308.945 613.164 309.517 612.956 309.975 612.946C310.44 612.932 310.817 613.026 311.161 613.112C311.865 613.284 312.524 613.52 313.128 613.792C314.334 614.343 315.314 615.04 316.043 615.712C317.506 617.074 318.004 618.227 317.899 618.286C317.759 618.387 317.048 617.42 315.558 616.296C314.815 615.737 313.865 615.158 312.738 614.699C312.173 614.473 311.564 614.278 310.923 614.135C310.253 613.958 309.684 613.952 309.512 614.25C309.449 614.364 309.441 614.408 309.581 614.605C309.725 614.785 309.997 614.963 310.282 615.15C310.841 615.516 311.402 615.833 311.953 616.109C313.053 616.658 314.108 617.033 315.01 617.287C316.819 617.797 318.009 617.884 318.004 618.051Z" fill="#263238"/>
<path d="M317.602 618.493C317.492 618.54 316.883 617.433 316.773 615.434C316.722 614.443 316.827 613.241 317.211 611.97C317.406 611.335 317.673 610.687 318.02 610.051C318.392 609.427 318.845 608.591 320.043 608.457C320.668 608.435 321.186 608.924 321.362 609.342C321.57 609.771 321.612 610.137 321.685 610.503C321.8 611.241 321.785 611.965 321.682 612.634C321.481 613.979 320.928 615.097 320.324 615.901C319.085 617.536 317.797 617.902 317.771 617.798C317.668 617.643 318.745 617.05 319.693 615.478C320.16 614.703 320.576 613.681 320.701 612.507C320.765 611.922 320.756 611.301 320.647 610.679C320.55 610.006 320.299 609.464 320.047 609.532C319.732 609.527 319.197 610.031 318.938 610.566C318.612 611.133 318.353 611.711 318.151 612.281C317.753 613.423 317.577 614.515 317.531 615.438C317.443 617.29 317.77 618.447 317.602 618.493Z" fill="#263238"/>
<path d="M286.58 445.943L349.121 529.054L319.868 554.181L289.752 514.802L286.58 445.943Z" fill="#263238"/>
<path d="M154.169 449.916C154.169 449.916 254.783 419.266 264 419.652C273.217 420.036 290.709 453.315 290.709 453.315L262.463 452.293C255.215 470.074 241.827 488.378 226.748 506.824L168.989 504.137L154.169 449.916Z" fill="#263238"/>
<path d="M236.414 425.699C236.471 425.89 226.129 429.132 213.318 432.939C200.503 436.748 190.071 439.679 190.014 439.488C189.957 439.297 200.296 436.055 213.111 432.246C225.924 428.44 236.357 425.508 236.414 425.699Z" fill="#263238"/>
<path d="M259.795 451.757H288.044C302.141 451.757 314.702 460.652 319.383 473.95C321.587 480.209 322.554 486.835 322.234 493.463L320.034 608.383H282.004L281.322 571.657L276.514 501.837L243.594 503.229L224.938 502.067L259.795 451.757Z" fill="#263238"/>
<path d="M260.633 451.185C260.682 451.197 260.49 452.059 260.101 453.613C259.747 455.176 259.052 457.39 258.104 460.094C257.07 462.765 255.792 465.948 253.908 469.247C252.068 472.564 249.763 476.061 247.03 479.481C241.517 486.296 235.745 491.726 231.666 495.72C229.67 497.638 228.023 499.219 226.787 500.408C225.628 501.509 224.971 502.102 224.937 502.067C224.901 502.033 225.491 501.373 226.589 500.21C227.682 499.043 229.301 497.391 231.307 495.358C235.294 491.272 240.999 485.792 246.465 479.032C251.924 472.259 255.569 465.215 257.627 459.912C258.63 457.25 259.397 455.071 259.831 453.535C260.302 452.011 260.585 451.172 260.633 451.185Z" fill="#455A64"/>
<path d="M295.183 452.532C295.17 452.641 293.214 452.461 290.051 452.284C286.888 452.101 282.514 451.972 277.682 452.074C272.848 452.167 268.478 452.454 265.314 452.669C262.149 452.891 260.191 453.036 260.179 452.932C260.173 452.882 260.655 452.783 261.534 452.645C262.413 452.504 263.688 452.339 265.268 452.162C268.428 451.817 272.811 451.447 277.667 451.354C282.522 451.251 286.923 451.462 290.088 451.776C291.673 451.926 292.949 452.094 293.828 452.238C294.708 452.381 295.19 452.483 295.183 452.532Z" fill="#455A64"/>
<path d="M281.842 587.388C281.817 587.388 281.782 587.06 281.739 586.43C281.7 585.729 281.649 584.816 281.585 583.681C281.474 581.208 281.322 577.774 281.133 573.567C280.759 565.028 280.242 553.23 279.426 540.217C278.604 527.2 277.637 515.43 276.938 506.911C276.597 502.715 276.319 499.288 276.118 496.821C276.039 495.688 275.975 494.776 275.925 494.074C275.889 493.447 275.882 493.114 275.907 493.112C275.932 493.11 275.987 493.437 276.07 494.061C276.154 494.758 276.263 495.666 276.398 496.794C276.654 499.257 277.01 502.676 277.447 506.864C278.277 515.374 279.325 527.143 280.148 540.171C280.964 553.194 281.401 565.002 281.645 573.548C281.738 577.758 281.813 581.196 281.868 583.671C281.875 584.807 281.882 585.722 281.886 586.425C281.881 587.056 281.867 587.387 281.842 587.388Z" fill="#263238"/>
<path d="M322.292 489.035C322.492 489.038 322.357 515.369 321.991 547.841C321.627 580.325 321.168 606.648 320.97 606.647C320.77 606.644 320.905 580.318 321.271 547.835C321.635 515.362 322.094 489.033 322.292 489.035Z" fill="#455A64"/>
<path d="M291.261 484.741C291.328 484.961 287.365 485.957 283.15 488.571C278.909 491.146 276.227 494.227 276.061 494.067C275.993 494.011 276.575 493.165 277.724 491.975C278.869 490.784 280.616 489.282 282.773 487.955C284.932 486.633 287.063 485.756 288.643 485.275C290.224 484.791 291.24 484.655 291.261 484.741Z" fill="#263238"/>
<g opacity="0.3">
<path d="M224.937 502.08C232.605 503.496 241.031 501.147 247.601 497.047C254.17 492.948 259.034 486.339 260.905 478.97C261.745 475.659 262.001 472.228 262.836 468.917C263.671 465.606 265.194 462.293 267.979 460.22C271.199 457.824 279.12 456.296 281.48 453.09C281.48 452.607 272.09 453.695 268.938 453.868C265.508 454.056 259.754 454.927 259.871 454.522C259.871 454.522 257.574 462.575 256.554 464.325C249.696 476.088 234.658 493.373 224.937 502.08Z" fill="black"/>
</g>
<path d="M68.1371 583.43L78.8288 653.378H89.4386L84.2147 583.694L68.1371 583.43Z" fill="#263238"/>
<path d="M256.339 583.694V653.378H267.54L271.709 583.43L256.339 583.694Z" fill="#263238"/>
<path d="M66.2411 367.241C66.2411 367.241 51.2612 367.836 46.6722 374.122C38.5862 385.197 43.1296 394.801 42.6791 398.076C42.2287 401.351 68.1372 583.431 68.1372 583.431H78.8024L271.707 585.212L280.963 562.704L276.511 501.839L224.935 502.069C224.935 502.069 203.815 441.444 185.35 437.391C172.845 434.647 143.475 435.618 125.813 436.533C116.994 436.989 108.604 432.713 103.807 425.3L66.2411 367.241Z" fill="#455A64"/>
<path d="M237.208 576.277C237.208 576.277 236.147 576.414 234.095 576.512C232.047 576.572 229.021 576.666 225.11 576.701C217.289 576.806 205.933 576.842 191.791 576.83C163.506 576.807 124.079 576.584 79.5023 576.198L79.2141 576.195L79.1558 575.915C78.3547 572.098 77.5315 568.18 76.6957 564.196C75.896 560.205 75.0824 556.146 74.2633 552.056C64.5793 502.686 58.9022 457.452 55.8503 424.648C54.316 408.242 53.397 394.939 52.8149 385.745C52.5627 381.162 52.3672 377.598 52.2328 375.151C52.176 373.957 52.133 373.041 52.1025 372.396C52.0776 371.775 52.0831 371.456 52.0831 371.456C52.0831 371.456 52.1275 371.772 52.176 372.392C52.2231 373.036 52.2896 373.951 52.3769 375.143C52.5419 377.588 52.7844 381.147 53.0949 385.725C53.7629 394.913 54.7595 408.205 56.3575 424.598C59.5384 457.379 65.2917 502.575 74.9701 551.916C75.7879 556.004 76.6001 560.06 77.3998 564.049C78.2342 568.031 79.0547 571.948 79.8544 575.762L79.5079 575.48C124.071 575.825 163.488 576.131 191.791 576.35C205.914 576.388 217.262 576.418 225.106 576.439C228.998 576.411 232.015 576.39 234.088 576.376C235.113 576.375 235.885 576.3 236.41 576.29C236.937 576.271 237.208 576.277 237.208 576.277Z" fill="#263238"/>
<path d="M235.176 584.873C235.152 584.867 235.181 584.569 235.255 584.006C235.35 583.369 235.472 582.554 235.62 581.549C235.793 580.485 236.001 579.183 236.169 577.661C236.342 576.141 236.612 574.418 236.748 572.496C236.923 570.577 237.118 568.478 237.2 566.214C237.353 563.955 237.359 561.535 237.393 558.99C237.364 553.901 237.093 548.307 236.428 542.471C235.728 536.637 234.698 531.129 233.574 526.164C232.41 521.208 231.152 516.794 229.957 513.132C229.405 511.286 228.783 509.656 228.291 508.206C227.803 506.753 227.333 505.523 226.946 504.516C226.594 503.563 226.309 502.791 226.086 502.187C225.896 501.65 225.807 501.365 225.831 501.355C225.854 501.345 225.987 501.613 226.22 502.131C226.477 502.723 226.804 503.48 227.208 504.414C227.637 505.406 228.147 506.626 228.671 508.069C229.2 509.509 229.857 511.13 230.443 512.974C231.705 516.627 233.018 521.045 234.223 526.015C235.389 530.993 236.442 536.525 237.146 542.389C237.815 548.254 238.066 553.88 238.059 558.995C238.007 561.552 237.979 563.981 237.799 566.249C237.692 568.521 237.465 570.627 237.258 572.55C237.091 574.476 236.783 576.2 236.571 577.719C236.366 579.241 236.116 580.54 235.9 581.599C235.696 582.595 235.53 583.403 235.401 584.035C235.278 584.588 235.201 584.878 235.176 584.873Z" fill="#263238"/>
<path d="M93.8197 454.426C93.8045 454.407 94.0734 454.181 94.6 453.769C95.1891 453.32 95.9625 452.73 96.9285 451.993C97.4441 451.606 98.0096 451.182 98.625 450.72C99.2723 450.298 100.003 449.878 100.775 449.406C102.334 448.493 104.051 447.336 106.136 446.41C107.163 445.911 108.236 445.39 109.351 444.848C110.466 444.295 111.699 443.891 112.935 443.379C114.188 442.909 115.455 442.335 116.816 441.908C118.177 441.478 119.577 441.036 121.012 440.583C126.79 438.912 133.264 437.42 140.163 436.6C147.053 435.728 153.674 435.318 159.691 435.415C162.701 435.362 165.555 435.606 168.227 435.703C170.891 435.95 173.379 436.122 175.631 436.442C180.144 437.027 183.756 437.775 186.223 438.385C187.394 438.709 188.331 438.97 189.045 439.167C189.688 439.352 190.021 439.462 190.014 439.487C190.007 439.51 189.66 439.448 189.006 439.308C188.287 439.144 187.34 438.928 186.159 438.659C183.681 438.135 180.071 437.467 175.569 436.949C173.322 436.663 170.841 436.521 168.188 436.302C165.526 436.231 162.683 436.011 159.687 436.081C153.696 436.02 147.109 436.449 140.254 437.316C133.389 438.133 126.951 439.596 121.197 441.222C119.768 441.663 118.374 442.092 117.019 442.51C115.662 442.923 114.402 443.483 113.152 443.937C111.918 444.433 110.687 444.823 109.574 445.358C108.459 445.882 107.386 446.386 106.36 446.869C104.273 447.76 102.553 448.878 100.981 449.753C100.204 450.205 99.4677 450.605 98.8121 451.009C98.1884 451.448 97.6132 451.853 97.0893 452.223C96.0928 452.912 95.2944 453.465 94.6888 453.885C94.1344 454.259 93.835 454.446 93.8197 454.426Z" fill="#263238"/>
<path d="M208.463 464.281C208.475 464.285 208.429 464.439 208.331 464.737C208.227 465.032 208.09 465.481 207.863 466.051C207.357 467.164 206.543 468.81 205.017 470.591C203.501 472.368 201.28 474.25 198.35 475.826C196.873 476.589 195.235 477.286 193.438 477.86C191.634 478.403 189.681 478.828 187.599 479.054C183.433 479.501 178.825 479.162 174.008 478.285C169.182 477.42 164.14 476.029 158.813 474.748C153.495 473.498 147.809 472.377 141.874 472.51C138.915 472.561 135.91 472.979 132.996 473.872C130.08 474.752 127.307 476.205 124.775 478.04C119.681 481.735 115.897 486.74 112.736 491.75C109.569 496.79 107.057 501.984 104.382 506.791C101.73 511.603 98.9341 516.072 95.7089 519.787C92.5183 523.513 88.8606 526.46 85.0436 528.212C81.2335 529.951 77.4469 530.752 74.1247 530.785C70.7941 530.83 67.9445 530.162 65.8045 529.229C64.711 528.799 63.8461 528.214 63.0741 527.754C62.3603 527.208 61.7546 526.744 61.3028 526.331C60.9022 525.908 60.5849 525.573 60.3423 525.318C60.1302 525.086 60.0249 524.966 60.0346 524.957C60.0443 524.949 60.1663 525.054 60.3964 525.268C60.65 525.509 60.9812 525.825 61.3998 526.224C61.8627 526.616 62.4781 527.056 63.1933 527.577C63.9681 528.011 64.8302 528.568 65.914 528.971C68.036 529.848 70.8426 530.464 74.1164 530.382C77.3818 530.313 81.099 529.488 84.826 527.75C88.5557 526.002 92.1191 523.097 95.2556 519.397C98.4199 515.713 101.174 511.275 103.8 506.471C106.449 501.677 108.951 496.465 112.136 491.376C115.317 486.321 119.141 481.24 124.351 477.458C126.94 475.58 129.791 474.088 132.784 473.187C135.774 472.274 138.847 471.851 141.859 471.804C147.897 471.679 153.631 472.831 158.969 474.104C164.309 475.406 169.33 476.816 174.116 477.699C178.892 478.596 183.444 478.956 187.548 478.548C189.597 478.343 191.523 477.941 193.305 477.423C195.08 476.875 196.701 476.205 198.165 475.471C201.067 473.952 203.279 472.134 204.806 470.411C207.849 466.891 208.331 464.201 208.463 464.281Z" fill="white"/>
<path d="M278.96 552.943C278.96 552.943 278.755 553.006 278.352 553.09C277.917 553.178 277.323 553.297 276.562 553.449C275.768 553.573 274.854 553.986 273.735 554.325C273.167 554.475 272.623 554.816 272.005 555.081C271.401 555.379 270.727 555.636 270.091 556.058C267.416 557.514 264.459 559.816 261.26 562.733C258.044 565.634 254.608 569.2 250.391 572.708C248.271 574.44 245.955 576.182 243.269 577.548C241.968 578.31 240.503 578.805 239.049 579.38C238.292 579.582 237.529 579.787 236.758 579.994C235.993 580.227 235.179 580.261 234.381 580.406C231.161 580.823 227.761 580.641 224.389 579.897C221.007 579.171 217.687 577.837 214.449 576.2C207.971 572.889 201.874 568.224 196.05 562.934C190.235 557.66 184.288 552.067 177.351 547.502C173.886 545.233 170.238 543.308 166.416 542.049C162.603 540.778 158.625 540.209 154.746 540.432C150.863 540.656 147.127 541.668 143.66 543.089C140.186 544.511 136.96 546.32 133.893 548.202C127.766 551.988 122.191 556.035 116.521 559.123C110.833 562.169 105.16 564.286 99.8308 565.563C89.1503 568.193 80.1191 567.851 74.0762 567.115C68.0027 566.306 64.7747 565.233 64.7747 565.233C64.7747 565.233 64.9868 565.258 65.3901 565.34C65.8239 565.433 66.4171 565.56 67.178 565.724C68.7484 566.058 71.081 566.485 74.1094 566.837C80.1385 567.484 89.1198 567.743 99.7075 565.068C104.992 563.771 110.608 561.64 116.234 558.6C121.846 555.514 127.396 551.459 133.544 547.636C136.624 545.736 139.874 543.904 143.398 542.453C146.913 541.003 150.729 539.962 154.704 539.728C158.676 539.494 162.752 540.076 166.64 541.369C170.539 542.649 174.242 544.605 177.743 546.899C184.754 551.514 190.718 557.135 196.524 562.411C202.312 567.683 208.359 572.322 214.75 575.609C217.943 577.233 221.211 578.557 224.526 579.279C227.833 580.019 231.156 580.207 234.303 579.812C235.084 579.674 235.879 579.646 236.628 579.42C237.382 579.222 238.13 579.025 238.87 578.83C240.295 578.271 241.73 577.797 243.013 577.054C245.656 575.729 247.955 574.02 250.068 572.314C254.274 568.859 257.736 565.318 260.989 562.435C264.224 559.537 267.233 557.247 269.954 555.815C270.601 555.401 271.287 555.148 271.901 554.859C272.531 554.601 273.082 554.27 273.66 554.128C274.797 553.805 275.725 553.413 276.529 553.312C277.3 553.189 277.901 553.092 278.341 553.021C278.75 552.957 278.96 552.943 278.96 552.943Z" fill="white"/>
<path d="M86.072 401.552C86.1122 401.562 86.0096 402.192 85.695 403.304C85.3832 404.415 84.8024 405.994 83.8433 407.831C81.9667 411.485 78.2106 416.171 72.5405 419.139C66.8634 422.098 60.8717 422.504 56.7997 421.955C54.7442 421.695 53.1171 421.269 52.0263 420.889C50.9341 420.514 50.3589 420.237 50.3728 420.198C50.4158 420.049 52.7914 421.061 56.8524 421.448C60.8662 421.857 66.6888 421.374 72.2051 418.499C77.7144 415.614 81.4372 411.113 83.3943 407.584C85.3984 404.031 85.9251 401.503 86.072 401.552Z" fill="white"/>
<path d="M519.81 309.605H257.784C252.47 309.605 248.161 305.297 248.161 299.982V229.053C248.161 223.739 252.468 219.43 257.784 219.43H519.81C525.124 219.43 529.433 223.738 529.433 229.053V299.982C529.433 305.297 525.125 309.605 519.81 309.605Z" fill="white"/>
<path d="M519.81 309.605C519.807 309.562 520.451 309.62 521.665 309.384C522.853 309.133 524.692 308.535 526.432 306.852C527.284 306.015 528.116 304.919 528.649 303.535C529.218 302.155 529.394 300.537 529.324 298.765C529.315 295.225 529.304 291.145 529.291 286.551C529.275 277.358 529.254 266.116 529.23 253.066C529.222 246.539 529.212 239.559 529.203 232.158C529.142 230.309 529.381 228.404 528.866 226.619C528.4 224.823 527.342 223.165 525.898 221.925C524.451 220.683 522.6 219.892 520.651 219.721C518.692 219.638 516.63 219.702 514.587 219.685C448.855 219.713 358.072 219.75 257.802 219.79C256.289 219.797 254.791 220.172 253.458 220.866C252.127 221.569 250.989 222.612 250.13 223.839C249.29 225.082 248.762 226.525 248.585 228.008C248.459 229.476 248.55 231.088 248.521 232.617C248.521 238.808 248.52 244.957 248.52 251.063C248.518 263.273 248.515 275.305 248.514 287.128C248.513 290.083 248.513 293.027 248.513 295.955C248.521 297.413 248.495 298.894 248.529 300.325C248.58 301.729 248.952 303.114 249.605 304.35C250.928 306.812 253.386 308.639 256.124 309.1C257.472 309.341 258.921 309.23 260.352 309.258C261.781 309.258 263.206 309.26 264.628 309.26C276.001 309.264 287.135 309.268 297.998 309.272C341.449 309.301 380.578 309.327 413.442 309.35C446.295 309.398 472.882 309.437 491.272 309.465C500.451 309.494 507.581 309.517 512.432 309.533C514.842 309.548 516.683 309.56 517.934 309.569C519.175 309.58 519.81 309.605 519.81 309.605C519.81 309.605 519.175 309.63 517.934 309.642C516.681 309.65 514.841 309.663 512.432 309.678C507.582 309.693 500.451 309.717 491.272 309.746C472.884 309.774 446.296 309.813 413.442 309.861C380.578 309.883 341.449 309.91 297.998 309.939C287.135 309.943 276.001 309.947 264.628 309.951C263.206 309.951 261.781 309.953 260.352 309.953C258.93 309.923 257.492 310.045 256.001 309.786C253.054 309.289 250.411 307.329 248.988 304.683C248.284 303.354 247.883 301.862 247.828 300.355C247.79 298.871 247.817 297.429 247.808 295.96C247.807 293.031 247.807 290.088 247.807 287.132C247.806 275.309 247.803 263.278 247.802 251.067C247.802 244.962 247.8 238.812 247.8 232.621C247.831 231.056 247.732 229.56 247.868 227.932C248.058 226.332 248.629 224.776 249.534 223.437C250.457 222.113 251.685 220.991 253.12 220.233C254.557 219.483 256.177 219.079 257.802 219.074C358.072 219.116 448.855 219.153 514.587 219.179C516.651 219.201 518.65 219.139 520.695 219.231C522.747 219.414 524.697 220.252 526.214 221.562C527.729 222.869 528.837 224.614 529.323 226.503C529.599 227.438 529.661 228.424 529.665 229.368C529.664 230.306 529.663 231.237 529.663 232.163C529.653 239.565 529.643 246.543 529.635 253.071C529.611 266.122 529.591 277.364 529.574 286.557C529.561 291.15 529.55 295.23 529.541 298.77C529.602 300.529 529.409 302.219 528.819 303.609C528.263 305.014 527.408 306.122 526.534 306.963C524.752 308.652 522.882 309.235 521.682 309.462C521.067 309.56 520.6 309.61 520.284 309.605C519.969 309.609 519.81 309.605 519.81 309.605Z" fill="#263238"/>
<path d="M509.182 237.94C509.092 237.94 508.999 237.904 508.931 237.833C508.798 237.695 508.803 237.476 508.942 237.343L515.873 230.704C516.013 230.573 516.231 230.575 516.363 230.715C516.496 230.853 516.49 231.072 516.352 231.206L509.42 237.843C509.354 237.908 509.268 237.94 509.182 237.94Z" fill="#263238"/>
<path d="M516.077 237.968C515.99 237.968 515.902 237.936 515.834 237.869L508.974 231.174C508.836 231.041 508.834 230.822 508.968 230.683C509.101 230.549 509.32 230.542 509.459 230.678L516.319 237.372C516.457 237.505 516.459 237.724 516.325 237.863C516.257 237.933 516.168 237.968 516.077 237.968Z" fill="#263238"/>
<path d="M308.776 282.037L305.947 278.032C304.242 275.617 303.326 272.734 303.325 269.778L303.322 260.777C303.319 253.426 297.917 247.337 290.866 246.263L290.865 241.968C290.865 240.876 289.979 239.991 288.887 239.991C287.795 239.991 286.91 240.877 286.91 241.969L286.912 246.199C279.61 247.053 273.946 253.258 273.947 260.788L273.95 270.113C273.951 273.319 272.876 276.432 270.898 278.955L268.468 282.052L308.776 282.037Z" fill="#B85EFF"/>
<path d="M286.501 288.583C288.672 289.492 291.351 289.032 293.093 287.449C293.856 286.758 294.421 285.867 294.758 284.896L283.017 284.813C283.594 286.475 284.873 287.901 286.501 288.583Z" fill="#B85EFF"/>
<path d="M467.015 249.896C467.015 250.095 435.508 250.256 396.65 250.256C357.778 250.256 326.277 250.094 326.277 249.896C326.277 249.698 357.778 249.535 396.65 249.535C435.508 249.534 467.015 249.696 467.015 249.896Z" fill="#263238"/>
<path d="M500.18 266.927C500.18 267.127 461.247 267.287 413.232 267.287C365.2 267.287 326.277 267.125 326.277 266.927C326.277 266.727 365.201 266.567 413.232 266.567C461.247 266.567 500.18 266.727 500.18 266.927Z" fill="#E0E0E0"/>
<path d="M500.18 277.127C500.18 277.326 461.247 277.487 413.232 277.487C365.2 277.487 326.277 277.325 326.277 277.127C326.277 276.927 365.201 276.766 413.232 276.766C461.247 276.766 500.18 276.928 500.18 277.127Z" fill="#E0E0E0"/>
<path d="M474.81 385.638H300.801C295.487 385.638 291.178 381.33 291.178 376.015V333.304C291.178 327.99 295.485 323.681 300.801 323.681H474.809C480.123 323.681 484.432 327.989 484.432 333.304V376.015C484.432 381.33 480.124 385.638 474.81 385.638Z" fill="#FAFAFA"/>
<path d="M474.81 385.638C474.809 385.613 475.244 385.62 476.076 385.508C476.9 385.395 478.155 385.124 479.564 384.289C480.953 383.469 482.554 382.065 483.508 379.864C483.983 378.776 484.289 377.508 484.302 376.138C484.299 374.754 484.295 373.279 484.292 371.718C484.275 365.465 484.255 357.821 484.231 348.949C484.223 344.511 484.213 339.765 484.203 334.733C484.205 333.466 484.228 332.213 483.897 330.989C483.586 329.767 483.017 328.594 482.224 327.571C480.655 325.509 478.123 324.106 475.398 323.965C430.701 323.984 368.981 324.011 300.813 324.041C298.765 324.065 296.713 324.718 295.118 326.001C293.513 327.254 292.32 329.035 291.839 331.006C291.577 331.998 291.517 332.978 291.54 334.041V337.182C291.54 339.272 291.54 341.357 291.538 343.431C291.537 351.734 291.534 359.915 291.533 367.954C291.533 369.964 291.531 371.965 291.531 373.957C291.54 374.946 291.506 375.965 291.576 376.902C291.68 377.851 291.912 378.783 292.277 379.661C293.039 381.401 294.316 382.912 295.926 383.892C297.526 384.906 299.405 385.351 301.301 385.29C309.034 385.294 316.604 385.298 323.991 385.302C353.534 385.332 380.138 385.358 402.487 385.38C424.82 385.429 442.894 385.467 455.406 385.495C461.641 385.524 466.486 385.548 469.794 385.563C471.426 385.578 472.675 385.591 473.537 385.599C474.378 385.613 474.81 385.638 474.81 385.638C474.81 385.638 474.378 385.663 473.535 385.675C472.673 385.684 471.426 385.696 469.793 385.711C466.485 385.727 461.641 385.75 455.405 385.779C442.892 385.807 424.817 385.846 402.486 385.894C380.137 385.916 353.533 385.943 323.99 385.972C316.604 385.976 309.034 385.98 301.3 385.984C299.34 386.052 297.262 385.576 295.559 384.486C293.828 383.433 292.453 381.813 291.632 379.94C291.239 378.995 290.987 377.994 290.876 376.973C290.799 375.932 290.835 374.961 290.826 373.961C290.824 371.969 290.824 369.968 290.824 367.958C290.823 359.919 290.82 351.738 290.819 343.436C290.819 341.359 290.819 339.276 290.817 337.186V334.045C290.793 333.014 290.858 331.876 291.139 330.831C291.659 328.707 292.944 326.786 294.673 325.436C296.392 324.054 298.608 323.345 300.812 323.323C368.992 323.376 430.722 323.424 475.427 323.461C478.3 323.619 480.964 325.107 482.605 327.279C483.437 328.357 484.03 329.594 484.353 330.878C484.697 332.166 484.666 333.497 484.659 334.738C484.65 339.771 484.64 344.515 484.632 348.955C484.608 357.825 484.587 365.469 484.571 371.724C484.562 373.286 484.555 374.761 484.548 376.147C484.523 377.551 484.199 378.848 483.702 379.955C482.705 382.196 481.056 383.606 479.635 384.42C478.192 385.246 476.917 385.497 476.084 385.585C475.244 385.671 474.81 385.638 474.81 385.638Z" fill="#263238"/>
<path d="M470.518 336.507C470.428 336.507 470.335 336.471 470.267 336.4C470.134 336.262 470.14 336.043 470.278 335.909L475.039 331.348C475.179 331.216 475.398 331.221 475.53 331.359C475.663 331.498 475.657 331.717 475.519 331.848L470.758 336.41C470.69 336.475 470.605 336.507 470.518 336.507Z" fill="#263238"/>
<path d="M475.256 336.528C475.169 336.528 475.082 336.496 475.014 336.429L470.3 331.829C470.163 331.696 470.16 331.477 470.295 331.339C470.428 331.204 470.647 331.197 470.784 331.333L475.498 335.933C475.635 336.066 475.638 336.285 475.503 336.424C475.437 336.492 475.348 336.528 475.256 336.528Z" fill="#263238"/>
<path d="M332.826 366.697L330.883 363.944C329.711 362.285 329.082 360.305 329.081 358.274L329.078 352.09C329.077 347.039 325.364 342.856 320.519 342.117L320.518 339.165C320.518 338.415 319.91 337.807 319.16 337.807C318.41 337.807 317.801 338.415 317.801 339.165L317.803 342.072C312.787 342.658 308.894 346.921 308.896 352.095L308.898 358.503C308.899 360.705 308.16 362.844 306.801 364.578L305.132 366.707L332.826 366.697Z" fill="#455A64"/>
<path d="M317.52 371.194C319.011 371.819 320.852 371.502 322.05 370.415C322.573 369.94 322.962 369.329 323.193 368.661L315.127 368.604C315.523 369.746 316.403 370.726 317.52 371.194Z" fill="#455A64"/>
<path d="M441.548 344.614C441.548 344.813 419.9 344.974 393.201 344.974C366.493 344.974 344.851 344.812 344.851 344.614C344.851 344.415 366.494 344.253 393.201 344.253C419.898 344.252 441.548 344.414 441.548 344.614Z" fill="#263238"/>
<path d="M464.334 356.316C464.334 356.515 437.584 356.676 404.594 356.676C371.594 356.676 344.849 356.515 344.849 356.316C344.849 356.116 371.594 355.955 404.594 355.955C437.584 355.955 464.334 356.116 464.334 356.316Z" fill="#E0E0E0"/>
<path d="M464.334 363.323C464.334 363.523 437.584 363.684 404.594 363.684C371.594 363.684 344.849 363.521 344.849 363.323C344.849 363.125 371.594 362.963 404.594 362.963C437.584 362.963 464.334 363.125 464.334 363.323Z" fill="#E0E0E0"/>
<path d="M474.079 456.767H301.528C296.215 456.767 291.905 452.46 291.905 447.144V404.9C291.905 399.587 296.213 395.277 301.528 395.277H474.079C479.392 395.277 483.702 399.585 483.702 404.9V447.144C483.7 452.46 479.392 456.767 474.079 456.767Z" fill="#FAFAFA"/>
<path d="M474.079 456.767C474.077 456.742 474.51 456.749 475.334 456.638C476.153 456.53 477.397 456.256 478.799 455.438C480.181 454.629 481.774 453.244 482.738 451.07C483.219 449.995 483.537 448.74 483.564 447.383C483.563 446.009 483.562 444.547 483.56 442.999C483.544 436.794 483.523 429.21 483.499 420.408C483.491 416.005 483.481 411.296 483.471 406.303C483.474 405.046 483.494 403.804 483.167 402.589C482.859 401.376 482.296 400.212 481.512 399.194C479.959 397.147 477.465 395.731 474.76 395.567C430.413 395.585 369.175 395.61 301.541 395.638C297.433 395.582 293.555 398.565 292.59 402.51C292.312 403.488 292.252 404.468 292.267 405.515V408.632C292.267 410.706 292.267 412.773 292.266 414.833C292.264 423.071 292.262 431.187 292.26 439.164C292.259 441.158 292.259 443.143 292.259 445.119C292.266 446.102 292.234 447.113 292.303 448.041C292.407 448.984 292.639 449.907 292.998 450.778C293.752 452.507 295.013 454.006 296.604 454.992C298.185 456.001 300.047 456.471 301.922 456.421C309.595 456.425 317.106 456.429 324.435 456.433C353.747 456.462 380.144 456.489 402.32 456.511C424.478 456.559 442.411 456.598 454.827 456.626C461.013 456.655 465.819 456.679 469.103 456.694C470.722 456.709 471.961 456.722 472.816 456.73C473.65 456.742 474.079 456.767 474.079 456.767C474.079 456.767 473.65 456.792 472.813 456.805C471.958 456.813 470.719 456.826 469.1 456.841C465.818 456.856 461.01 456.88 454.824 456.909C442.408 456.936 424.475 456.975 402.317 457.024C380.142 457.046 353.745 457.072 324.432 457.101C317.103 457.106 309.592 457.11 301.919 457.114C299.965 457.172 297.919 456.666 296.231 455.584C294.521 454.526 293.163 452.917 292.352 451.057C291.964 450.119 291.713 449.125 291.602 448.112C291.526 447.079 291.56 446.116 291.552 445.122C291.551 443.146 291.551 441.161 291.551 439.167C291.549 431.19 291.547 423.074 291.545 414.835C291.545 412.776 291.545 410.709 291.544 408.634V405.517C291.526 404.485 291.591 403.362 291.89 402.327C292.931 398.073 297.11 394.859 301.538 394.919C369.187 394.974 430.438 395.024 474.795 395.06C477.646 395.243 480.271 396.744 481.894 398.901C482.716 399.973 483.302 401.2 483.623 402.475C483.963 403.753 483.936 405.072 483.929 406.305C483.919 411.297 483.909 416.005 483.901 420.41C483.878 429.212 483.857 436.795 483.84 443C483.83 444.55 483.821 446.015 483.811 447.39C483.771 448.781 483.435 450.065 482.932 451.16C481.923 453.373 480.285 454.765 478.87 455.566C477.433 456.375 476.17 456.626 475.343 456.712C474.51 456.799 474.079 456.767 474.079 456.767Z" fill="#263238"/>
<path d="M469.891 408.009C469.801 408.009 469.708 407.975 469.641 407.902C469.508 407.764 469.513 407.545 469.652 407.413L474.378 402.887C474.518 402.758 474.737 402.758 474.869 402.898C475.002 403.036 474.996 403.255 474.857 403.388L470.131 407.915C470.063 407.977 469.977 408.009 469.891 408.009Z" fill="#263238"/>
<path d="M474.594 408.03C474.507 408.03 474.419 407.998 474.351 407.932L469.674 403.366C469.536 403.232 469.534 403.013 469.668 402.877C469.803 402.742 470.022 402.736 470.159 402.871L474.837 407.437C474.974 407.571 474.976 407.79 474.842 407.926C474.773 407.994 474.684 408.03 474.594 408.03Z" fill="#263238"/>
<path d="M333.237 437.969L331.308 435.237C330.145 433.591 329.521 431.625 329.52 429.609L329.517 423.472C329.516 418.458 325.831 414.307 321.024 413.574L321.023 410.645C321.023 409.901 320.418 409.297 319.674 409.297C318.93 409.297 318.325 409.901 318.325 410.645L318.327 413.53C313.348 414.112 309.485 418.343 309.487 423.477L309.49 429.836C309.49 432.022 308.758 434.145 307.408 435.865L305.752 437.977L333.237 437.969Z" fill="#E0E0E0"/>
<path d="M318.048 442.432C319.528 443.052 321.355 442.738 322.543 441.659C323.063 441.187 323.448 440.579 323.678 439.918L315.673 439.861C316.066 440.995 316.938 441.968 318.048 442.432Z" fill="#E0E0E0"/>
<path d="M441.139 416.052C441.139 416.252 419.654 416.413 393.157 416.413C366.651 416.413 345.171 416.25 345.171 416.052C345.171 415.853 366.651 415.692 393.157 415.692C419.654 415.692 441.139 415.853 441.139 416.052Z" fill="#263238"/>
<path d="M463.754 427.666C463.754 427.865 437.207 428.026 404.465 428.026C371.713 428.026 345.171 427.865 345.171 427.666C345.171 427.466 371.713 427.305 404.465 427.305C437.205 427.305 463.754 427.467 463.754 427.666Z" fill="#E0E0E0"/>
<path d="M463.754 434.621C463.754 434.82 437.207 434.981 404.465 434.981C371.713 434.981 345.171 434.819 345.171 434.621C345.171 434.421 371.713 434.26 404.465 434.26C437.205 434.26 463.754 434.422 463.754 434.621Z" fill="#E0E0E0"/>
<path d="M616.022 378.008C601.672 385.441 590.67 398.237 582.759 412.327C574.848 426.417 569.749 441.878 564.698 457.228L560.278 536.39C576.974 507.987 590.374 474.598 593.994 441.851C590.29 441.521 586.587 441.192 582.884 440.862C590.333 439.725 596.586 434.327 600.564 427.927C604.541 421.528 606.59 414.148 608.588 406.882C604.07 407.555 599.552 408.225 595.033 408.898C605.65 401.814 613.345 390.486 616.022 378.008Z" fill="#455A64"/>
<path d="M616.022 378.008C601.672 385.441 590.67 398.237 582.759 412.327C574.848 426.417 569.749 441.878 564.698 457.228L560.278 536.39C576.974 507.987 590.374 474.598 593.994 441.851C590.29 441.521 586.587 441.192 582.884 440.862C590.333 439.725 596.586 434.327 600.564 427.927C604.541 421.528 606.59 414.148 608.588 406.882C604.07 407.555 599.552 408.225 595.033 408.898C605.65 401.814 613.345 390.486 616.022 378.008Z" fill="#B85EFF"/>
<g opacity="0.3">
<path d="M616.022 378.008C601.672 385.441 590.67 398.237 582.759 412.327C574.848 426.417 569.749 441.878 564.698 457.228L560.278 536.39C576.974 507.987 590.374 474.598 593.994 441.851C590.29 441.521 586.587 441.192 582.884 440.862C590.333 439.725 596.586 434.327 600.564 427.927C604.541 421.528 606.59 414.148 608.588 406.882C604.07 407.555 599.552 408.225 595.033 408.898C605.65 401.814 613.345 390.486 616.022 378.008Z" fill="black"/>
</g>
<path d="M557.807 554.941C557.807 554.941 521.568 511.567 521.987 470.16H536.626C536.626 470.16 520.726 459.704 521.984 453.848C523.243 447.993 523.661 425.826 523.661 425.826L537.045 429.172C537.045 429.172 527.007 424.153 525.751 416.206C524.497 408.26 528.679 371.454 528.679 371.454C528.679 371.454 544.99 388.601 550.009 406.167C555.028 423.733 568.202 444.227 564.333 497.762C560.465 551.299 557.807 554.941 557.807 554.941Z" fill="#B85EFF"/>
<path d="M576.178 559.035C576.178 559.035 615.438 532.881 624.162 499.501L612.393 496.298C612.393 496.298 627.464 491.37 627.733 486.388C628.002 481.405 632.516 463.491 632.516 463.491L621.024 463.252C621.024 463.252 630.192 461.413 632.939 455.3C635.686 449.186 640.376 418.68 640.376 418.68C640.376 418.68 623.51 428.898 615.632 441.922C607.754 454.946 592.679 468.541 584.076 512.428C575.474 556.314 576.178 559.035 576.178 559.035Z" fill="#B85EFF"/>
<path d="M538.579 409.272C538.591 409.269 538.637 409.422 538.713 409.721C538.795 410.063 538.9 410.503 539.033 411.054C539.311 412.282 539.697 414.005 540.192 416.199C540.697 418.433 541.284 421.174 541.92 424.363C542.568 427.551 543.322 431.178 544.059 435.207C545.616 443.248 547.257 452.863 548.945 463.56C550.582 474.266 552.214 486.06 553.664 498.473C555.085 510.895 556.187 522.753 557.035 533.552C557.832 544.353 558.428 554.09 558.746 562.274C558.947 566.364 559.04 570.067 559.139 573.319C559.247 576.57 559.301 579.372 559.319 581.661C559.338 583.909 559.354 585.676 559.365 586.935C559.362 587.503 559.359 587.955 559.356 588.307C559.351 588.616 559.341 588.774 559.327 588.774C559.313 588.774 559.297 588.616 559.277 588.308C559.259 587.958 559.237 587.506 559.208 586.939C559.162 585.682 559.099 583.918 559.017 581.671C558.953 579.383 558.855 576.584 558.705 573.336C558.566 570.087 558.435 566.388 558.199 562.302C557.81 554.126 557.157 544.4 556.322 533.61C555.434 522.824 554.313 510.977 552.893 498.565C551.445 486.162 549.834 474.374 548.238 463.671C546.59 452.977 545.006 443.359 543.52 435.309C542.817 431.277 542.102 427.645 541.495 424.45C540.899 421.253 540.356 418.505 539.897 416.263C539.463 414.056 539.123 412.324 538.881 411.089C538.78 410.53 538.698 410.086 538.636 409.739C538.584 409.433 538.565 409.275 538.579 409.272Z" fill="#263238"/>
<path d="M552.78 581.5C552.78 581.5 519.617 543.873 509.32 521.128L517.093 517.807C511.459 518.737 505.686 516.315 501.318 512.638C496.949 508.961 493.74 504.124 490.594 499.358L500.834 497.628C491.523 495.015 483.318 488.661 478.46 480.298C490.544 482.285 501.476 488.923 510.485 497.218C517.781 503.936 523.958 511.735 529.89 519.703C532.784 523.589 535.316 527.731 537.427 532.094C543 543.611 552.799 567.682 552.78 581.5Z" fill="#B85EFF"/>
<path d="M624.683 440.58C624.695 440.586 624.644 440.718 624.534 440.966C624.401 441.253 624.235 441.613 624.028 442.061C623.543 443.068 622.871 444.467 622.017 446.239C620.245 449.854 617.732 455.111 614.688 461.634C608.594 474.674 600.564 492.877 592.634 513.359C584.72 533.855 578.415 552.727 574.152 566.475C572.016 573.348 570.339 578.928 569.219 582.795C568.658 584.681 568.214 586.167 567.895 587.238C567.747 587.708 567.628 588.087 567.532 588.389C567.446 588.647 567.395 588.777 567.383 588.774C567.37 588.77 567.395 588.633 567.455 588.368C567.531 588.06 567.625 587.675 567.743 587.197C568.029 586.116 568.424 584.616 568.927 582.713C569.958 578.82 571.555 573.214 573.625 566.315C577.758 552.516 583.986 533.596 591.909 513.081C599.847 492.577 607.966 474.39 614.192 461.402C617.301 454.905 619.891 449.682 621.747 446.108C622.656 444.361 623.372 442.985 623.888 441.993C624.123 441.559 624.313 441.21 624.462 440.931C624.597 440.693 624.67 440.573 624.683 440.58Z" fill="#263238"/>
<path d="M555.593 597.625C555.567 597.628 555.509 597.39 555.424 596.935C555.333 596.389 555.223 595.731 555.092 594.939C554.834 593.204 554.396 590.699 553.785 587.625C553.184 584.547 552.329 580.911 551.241 576.913C550.117 572.925 548.742 568.58 547.065 564.102C545.363 559.632 543.524 555.46 541.731 551.725C539.904 548.005 538.144 544.711 536.559 542.005C534.986 539.293 533.66 537.126 532.706 535.653C532.282 534.971 531.93 534.406 531.638 533.936C531.401 533.538 531.286 533.322 531.308 533.306C531.33 533.291 531.487 533.478 531.767 533.847C532.092 534.296 532.486 534.835 532.959 535.485C533.991 536.91 535.392 539.039 537.033 541.725C538.684 544.406 540.504 547.689 542.375 551.41C544.213 555.148 546.083 559.334 547.794 563.829C549.48 568.332 550.844 572.708 551.934 576.727C552.99 580.756 553.794 584.422 554.327 587.524C554.871 590.624 555.227 593.148 555.394 594.9C555.469 595.7 555.531 596.365 555.582 596.918C555.614 597.377 555.62 597.621 555.593 597.625Z" fill="#263238"/>
<path d="M599.352 588.774H526.771V603.579H599.352V588.774Z" fill="#455A64"/>
<path d="M533.688 603.579L541.538 653.378H585.395L592.713 603.579H533.688Z" fill="#455A64"/>
<path d="M594.899 603.579C594.899 603.794 581.169 603.968 564.235 603.968C547.297 603.968 533.568 603.794 533.568 603.579C533.568 603.365 547.295 603.191 564.235 603.191C581.169 603.191 594.899 603.365 594.899 603.579Z" fill="#263238"/>
<path d="M168.567 235.746L170.076 217.838C163.846 213.698 158.647 207.838 155.285 200.546C145.615 179.576 154.776 154.739 175.745 145.07C196.714 135.401 221.552 144.561 231.221 165.53C240.89 186.499 231.729 211.337 210.761 221.006C202.005 225.043 192.576 225.788 183.858 223.77L183.879 223.781L168.567 235.746Z" fill="white"/>
<path d="M168.567 235.746C169.297 235.183 174.162 231.433 183.957 223.882L184.115 223.76L183.937 223.666L183.917 223.655L183.828 223.894C186.768 224.574 190.125 225.031 193.81 225.002C197.488 224.948 201.497 224.441 205.596 223.174C207.638 222.531 209.727 221.76 211.75 220.705C212.758 220.17 213.8 219.659 214.82 219.079C215.802 218.434 216.797 217.779 217.806 217.116C221.714 214.284 225.359 210.623 228.287 206.188C231.217 201.763 233.423 196.568 234.515 190.935C235.605 185.311 235.599 179.242 234.169 173.303C232.73 167.376 229.955 161.592 225.929 156.612C221.901 151.658 216.686 147.408 210.585 144.746L208.247 143.755C207.472 143.416 206.646 143.224 205.85 142.951C205.042 142.719 204.26 142.396 203.436 142.242L200.984 141.72C200.173 141.515 199.346 141.43 198.521 141.342C197.696 141.247 196.874 141.153 196.054 141.06C195.229 141.044 194.406 141.027 193.585 141.01C192.765 141.01 191.944 140.941 191.131 141.044C184.603 141.397 178.335 143.276 172.899 146.278C167.461 149.278 162.822 153.373 159.402 158.102C155.96 162.818 153.641 168.062 152.399 173.297C151.149 178.539 150.974 183.766 151.605 188.6C152.252 193.45 153.839 197.824 155.651 201.714C157.565 205.57 159.936 208.841 162.428 211.522C164.926 214.206 167.544 216.298 170.007 217.939L169.953 217.825C169.067 229.273 168.635 234.867 168.567 235.746C168.647 234.869 169.156 229.28 170.199 217.847L170.206 217.775L170.145 217.734C167.707 216.087 165.12 213.993 162.654 211.316C160.192 208.643 157.856 205.387 155.972 201.558C154.191 197.692 152.632 193.353 152.005 188.549C151.397 183.76 151.583 178.587 152.83 173.402C154.071 168.224 156.374 163.041 159.785 158.385C163.172 153.714 167.763 149.674 173.141 146.715C178.517 143.755 184.711 141.903 191.157 141.556C191.96 141.454 192.77 141.524 193.581 141.524C194.392 141.541 195.204 141.558 196.021 141.574C196.83 141.667 197.642 141.76 198.457 141.853C199.272 141.94 200.09 142.023 200.89 142.227L203.311 142.743C204.126 142.894 204.898 143.214 205.696 143.443C206.482 143.712 207.298 143.901 208.064 144.237L210.373 145.217C216.399 147.845 221.551 152.043 225.531 156.934C229.511 161.85 232.258 167.563 233.685 173.418C235.106 179.285 235.118 185.283 234.05 190.845C232.98 196.417 230.806 201.558 227.917 205.943C225.03 210.338 221.433 213.969 217.569 216.786C216.572 217.445 215.588 218.098 214.618 218.74C213.608 219.316 212.578 219.825 211.581 220.359C209.58 221.412 207.512 222.183 205.49 222.827C201.43 224.098 197.458 224.618 193.807 224.69C190.149 224.736 186.813 224.301 183.888 223.645L183.799 223.885L183.82 223.896L183.8 223.681C174.102 231.359 169.287 235.174 168.567 235.746Z" fill="#263238"/>
<path d="M187.329 161.717L188.626 186.051C188.733 188.041 190.305 189.639 192.292 189.778C194.389 189.924 196.233 188.4 196.484 186.313L199.426 161.899C199.649 160.05 198.201 158.424 196.339 158.432L190.406 158.456C188.637 158.463 187.235 159.95 187.329 161.717Z" fill="#B85EFF"/>
<path d="M198.661 202.015C197.628 205.127 194.269 206.811 191.157 205.778C188.046 204.745 186.362 201.386 187.394 198.274C188.427 195.163 191.786 193.479 194.898 194.511C198.01 195.544 199.695 198.903 198.661 202.015Z" fill="#B85EFF"/>
</svg>
